<svg width="40" height="40" viewBox="0 0 40 40" fill="none" xmlns="http://www.w3.org/2000/svg">
<rect width="40" height="40" fill="#1E1E1E"/>
<rect width="1920" height="1080" transform="translate(-1203 -226)" fill="#CAF0F8"/>
<rect x="-690" y="-226" width="897" height="1080" rx="30" fill="#0077B6"/>
<rect x="-5" y="-3" width="113" height="46" rx="10" fill="white"/>
<path d="M29.589 23.3323C31.6601 23.3323 33.339 25.0113 33.339 27.0823V28.5908C33.339 30.4137 32.5433 32.1457 31.1601 33.333C28.5511 35.5728 24.8173 36.6677 20.0006 36.6677C15.1848 36.6677 11.4534 35.5733 8.84861 33.3338C7.46757 32.1465 6.67316 30.4158 6.67316 28.5945V27.0823C6.67316 25.0113 8.35209 23.3323 10.4232 23.3323H29.589ZM29.589 25.8323H10.4232C9.73279 25.8323 9.17316 26.392 9.17316 27.0823V28.5945C9.17316 29.6873 9.64981 30.7257 10.4784 31.4382C12.5752 33.2408 15.7353 34.1677 20.0006 34.1677C24.2671 34.1677 27.4303 33.2403 29.5318 31.4362C30.3615 30.7237 30.839 29.6845 30.839 28.5908V27.0823C30.839 26.392 30.2793 25.8323 29.589 25.8323ZM19.8315 3.34475L20.0011 3.33334C20.634 3.33334 21.157 3.80359 21.2396 4.41372L21.2511 4.58334L21.2498 5.83167L27.084 5.83252C29.155 5.83252 30.834 7.51145 30.834 9.58252V17.0902C30.834 19.1612 29.155 20.8402 27.084 20.8402H12.9172C10.8462 20.8402 9.16724 19.1612 9.16724 17.0902V9.58252C9.16724 7.51145 10.8462 5.83252 12.9172 5.83252L18.7498 5.83167L18.7511 4.58334C18.7511 3.9505 19.2213 3.42752 19.8315 3.34475ZM27.084 8.33252H12.9172C12.2269 8.33252 11.6672 8.89215 11.6672 9.58252V17.0902C11.6672 17.7805 12.2269 18.3402 12.9172 18.3402H27.084C27.7743 18.3402 28.334 17.7805 28.334 17.0902V9.58252C28.334 8.89215 27.7743 8.33252 27.084 8.33252ZM16.2494 10.8325C17.3993 10.8325 18.3315 11.7647 18.3315 12.9147C18.3315 14.0646 17.3993 14.9968 16.2494 14.9968C15.0995 14.9968 14.1672 14.0646 14.1672 12.9147C14.1672 11.7647 15.0995 10.8325 16.2494 10.8325ZM23.7373 10.8325C24.8873 10.8325 25.8195 11.7647 25.8195 12.9147C25.8195 14.0646 24.8873 14.9968 23.7373 14.9968C22.5873 14.9968 21.6551 14.0646 21.6551 12.9147C21.6551 11.7647 22.5873 10.8325 23.7373 10.8325Z" fill="#03045E"/>
</svg>
