<svg width="40" height="40" viewBox="0 0 40 40" fill="none" xmlns="http://www.w3.org/2000/svg">
<path d="M20 3.33009C29.2062 3.33009 36.6692 10.7932 36.6692 19.9993C36.6692 29.2055 29.2062 36.6685 20 36.6685C10.7938 36.6685 3.33069 29.2055 3.33069 19.9993C3.33069 10.7932 10.7938 3.33009 20 3.33009ZM20 5.83009C12.1745 5.83009 5.83069 12.1739 5.83069 19.9993C5.83069 27.8248 12.1745 34.1685 20 34.1685C27.8253 34.1685 34.1692 27.8248 34.1692 19.9993C34.1692 12.1739 27.8253 5.83009 20 5.83009ZM14.1028 24.6382C15.5181 26.4343 17.6698 27.502 19.9998 27.502C22.327 27.502 24.476 26.4373 25.8915 24.6452C26.3193 24.1033 27.1055 24.011 27.6472 24.439C28.189 24.8668 28.2813 25.6528 27.8533 26.1947C25.9688 28.5808 23.1002 30.002 19.9998 30.002C16.8955 30.002 14.0235 28.577 12.1391 26.1853C11.7119 25.6432 11.8051 24.8572 12.3474 24.43C12.8897 24.0027 13.6756 24.096 14.1028 24.6382ZM15.0007 14.5837C16.1506 14.5837 17.0828 15.5159 17.0828 16.6659C17.0828 17.8158 16.1506 18.748 15.0007 18.748C13.8508 18.748 12.9185 17.8158 12.9185 16.6659C12.9185 15.5159 13.8508 14.5837 15.0007 14.5837ZM25.0007 14.5837C26.1507 14.5837 27.0828 15.5159 27.0828 16.6659C27.0828 17.8158 26.1507 18.748 25.0007 18.748C23.8507 18.748 22.9185 17.8158 22.9185 16.6659C22.9185 15.5159 23.8507 14.5837 25.0007 14.5837Z" fill="#03045E"/>
</svg>
