<svg width="80" height="80" viewBox="0 0 80 80" fill="none" xmlns="http://www.w3.org/2000/svg">
<path d="M40.0407 7.5C42.4873 7.5282 44.9243 7.81087 47.3123 8.34347C48.3547 8.57597 49.1343 9.44503 49.2527 10.5065L49.82 15.596C50.077 17.9329 52.05 19.7028 54.402 19.7053C55.0343 19.7063 55.6597 19.5746 56.244 19.3161L60.9127 17.2652C61.8837 16.8386 63.0183 17.0712 63.743 17.8454C67.117 21.4488 69.6297 25.7705 71.0923 30.4853C71.4077 31.5019 71.0447 32.6068 70.188 33.2383L66.0497 36.2887C64.869 37.156 64.172 38.5333 64.172 39.9983C64.172 41.463 64.869 42.8403 66.0523 43.7097L70.194 46.761C71.051 47.3923 71.4143 48.4973 71.099 49.5143C69.637 54.2283 67.1257 58.5497 63.7537 62.1537C63.0297 62.9277 61.896 63.161 60.925 62.7353L56.2373 60.6817C54.896 60.0947 53.356 60.1807 52.0883 60.9133C50.821 61.6457 49.9777 62.9373 49.8167 64.3923L49.253 69.4813C49.1367 70.5307 48.374 71.394 47.3467 71.6383C42.5187 72.787 37.4883 72.787 32.6601 71.6383C31.633 71.394 30.8702 70.5307 30.7539 69.4813L30.1912 64.4C30.0259 62.9477 29.1811 61.66 27.9147 60.93C26.6484 60.2 25.1107 60.1143 23.774 60.698L19.0852 62.752C18.1141 63.1777 16.9801 62.9443 16.2559 62.1697C12.8821 58.5617 10.3706 54.235 8.91067 49.516C8.5962 48.4997 8.95954 47.3953 9.81617 46.7643L13.9606 43.711C15.1411 42.8437 15.8382 41.4663 15.8382 40.0017C15.8382 38.5367 15.1411 37.1593 13.959 36.291L9.8172 33.2428C8.95934 32.6115 8.59567 31.5059 8.91124 30.4886C10.3737 25.7738 12.8865 21.4521 16.2604 17.8487C16.9853 17.0745 18.1198 16.842 19.0908 17.2685L23.7587 19.3191C25.1019 19.9085 26.646 19.8195 27.9192 19.0756C29.187 18.3403 30.031 17.0474 30.1939 15.5921L30.7608 10.5065C30.8792 9.4445 31.6595 8.57513 32.7027 8.34313C35.0937 7.8114 37.5333 7.52883 40.0407 7.5ZM40.0413 12.4997C38.5277 12.5175 37.0187 12.6481 35.526 12.8901L35.163 16.1473C34.8237 19.1789 33.0668 21.8701 30.4347 23.3968C27.7866 24.9439 24.5579 25.1301 21.7486 23.8972L18.7543 22.5819C16.8479 24.8958 15.3305 27.5045 14.2617 30.3056L16.9211 32.2626C19.3838 34.072 20.8382 36.9457 20.8382 40.0017C20.8382 43.0573 19.3838 45.931 16.9237 47.7383L14.2602 49.7007C15.328 52.5067 16.8456 55.1203 18.7533 57.4387L21.7704 56.117C24.5641 54.8973 27.7708 55.0757 30.4118 56.598C33.0527 58.1203 34.8143 60.8057 35.16 63.842L35.5233 67.1217C38.4887 67.626 41.5183 67.626 44.4837 67.1217L44.847 63.8423C45.183 60.807 46.9427 58.1123 49.5867 56.5843C52.2307 55.056 55.444 54.8767 58.2427 56.1017L61.2573 57.4223C63.1633 55.1077 64.6803 52.4983 65.749 49.6967L63.089 47.737C60.6263 45.9277 59.172 43.054 59.172 39.9983C59.172 36.9423 60.6263 34.0687 63.086 32.2616L65.7423 30.3036C64.6737 27.502 63.156 24.8928 61.2493 22.5785L58.261 23.8912C57.0433 24.43 55.726 24.7073 54.3957 24.7053C49.4967 24.7001 45.385 21.0118 44.8503 16.1461L44.4873 12.889C43.0023 12.6473 41.5087 12.5171 40.0413 12.4997ZM39.999 27.4998C46.9027 27.4998 52.499 33.0963 52.499 40C52.499 46.9033 46.9027 52.5 39.999 52.5C33.0954 52.5 27.499 46.9033 27.499 40C27.499 33.0963 33.0954 27.4998 39.999 27.4998ZM39.999 32.4998C35.857 32.4998 32.499 35.8577 32.499 40C32.499 44.142 35.857 47.5 39.999 47.5C44.141 47.5 47.499 44.142 47.499 40C47.499 35.8577 44.141 32.4998 39.999 32.4998Z" fill="#212121"/>
</svg>
